<?xml version="1.0" encoding="UTF-8"?>
<svg version="1.1" xmlns="http://www.w3.org/2000/svg" width="75px" height="75px" fill="none">
<path d="M0 0 C3.78942061 0.39675558 5.35070119 2.10243111 7.75 4.9375 C8.67039062 6.00291016 8.67039062 6.00291016 9.609375 7.08984375 C11 9 11 9 11 11 C20.67619606 11.51526114 20.67619606 11.51526114 29.22265625 7.70703125 C31.64693381 5.23391932 33.88565682 2.74118375 36 0 C37.32 0.66 38.64 1.32 40 2 C39.96334229 2.85118408 39.92668457 3.70236816 39.88891602 4.5793457 C39.76837043 7.79047968 39.68127375 11.00044769 39.61547852 14.21313477 C39.58064665 15.5934076 39.53315875 16.9734295 39.47192383 18.3527832 C39.02932732 28.59201167 40.45803419 34.99560086 47 43 C46.87157715 42.3601416 46.7431543 41.7202832 46.61083984 41.06103516 C45.78591584 36.67951842 45.49277328 34.75315482 48.0625 30.9375 C51.43122318 28.7155762 53.04657298 28.4728764 57 29 C57.66 29.33 58.32 29.66 59 30 C58.67 31.32 58.34 32.64 58 34 C55.03 34.495 55.03 34.495 52 35 C52.38224716 38.82247155 53.26405779 41.71345745 55.0625 45.0625 C56.69706014 48.18844713 57.71795845 50.41020773 57 54 C55.12139167 56.5048111 54.03898126 56.98700625 51 58 C49.31288577 59.6459651 47.6454378 61.31237149 46 63 C42.82954519 64.58522741 39.40556153 64.20529707 35.921875 64.23828125 C35.11768127 64.246353 34.31348755 64.25442474 33.48492432 64.26274109 C31.7801733 64.27658298 30.07539455 64.28730467 28.37060547 64.29516602 C25.77387256 64.3123421 23.17842524 64.35622084 20.58203125 64.40039062 C18.92448852 64.41052105 17.26693497 64.41903606 15.609375 64.42578125 C14.83728699 64.44328934 14.06519897 64.46079742 13.26971436 64.47883606 C8.06396548 64.45808307 5.12468942 63.44541582 1 60 C-1.25254239 56.62118641 -1.24864001 55.48912551 -1.24291992 51.53466797 C-1.24599655 50.41696014 -1.24907318 49.29925232 -1.25224304 48.14767456 C-1.24505753 46.94136383 -1.23787201 45.7350531 -1.23046875 44.4921875 C-1.23001053 43.2558255 -1.22955231 42.0194635 -1.2290802 40.74563599 C-1.22528274 37.46128511 -1.21227257 34.17712751 -1.19561768 30.89282227 C-1.18214714 27.54443125 -1.18534193 24.1960734 -1.18554688 20.84765625 C-1.18063226 18.31249799 -1.17480419 15.77734131 -1.16796875 13.2421875 C-1.16685593 12.03182831 -1.1657431 10.82146912 -1.16459656 9.57443237 C-1.15502678 7.90732712 -1.15502678 7.90732712 -1.14526367 6.20654297 C-1.14145187 5.22297821 -1.13764008 4.23941345 -1.13371277 3.2260437 C-1 1 -1 1 0 0 Z M4 10 C3.92393829 16.335371 3.87139543 22.67062424 3.83520508 29.00634766 C3.82011818 31.16166586 3.79964611 33.31695336 3.77368164 35.47216797 C3.73729456 38.57006404 3.72027261 41.66755423 3.70703125 44.765625 C3.69154739 45.72929993 3.67606354 46.69297485 3.66011047 47.68585205 C3.65988388 48.58648376 3.65965729 49.48711548 3.65942383 50.41503906 C3.65276199 51.20557678 3.64610016 51.9961145 3.63923645 52.81060791 C4.10152225 55.61611551 5.0234943 56.97448022 7 59 C9.80835416 59.39337249 12.22005105 59.53762136 15.02734375 59.49609375 C15.81266983 59.49754898 16.59799591 59.49900421 17.40711975 59.50050354 C19.06726797 59.49884437 20.72743153 59.48728089 22.38745117 59.46655273 C24.92498371 59.4376426 27.46042114 59.44593302 29.99804688 59.45898438 C31.6119893 59.45274536 33.22592513 59.44435314 34.83984375 59.43359375 C35.5972435 59.43652939 36.35464325 59.43946503 37.13499451 59.44248962 C40.35475873 59.38503009 42.63796056 59.20362483 45.47119141 57.61010742 C47.16108393 56.08032609 47.16108393 56.08032609 47.62109375 53.8046875 C46.81985486 50.18651442 45.05666362 48.19976977 42.78222656 45.32568359 C34.00243755 34.09044536 33.24732823 23.93187986 34 10 C33.20722656 10.81210937 32.41445313 11.62421875 31.59765625 12.4609375 C27.48903076 15.87373766 23.59677783 15.74470482 18.4375 15.625 C17.60025391 15.64433594 16.76300781 15.66367187 15.90039062 15.68359375 C15.08634766 15.67714844 14.27230469 15.67070312 13.43359375 15.6640625 C12.70197021 15.65842285 11.97034668 15.6527832 11.21655273 15.64697266 C7.92277449 14.68557687 6.25722361 12.49645708 4 10 Z " fill="#E35A4B" transform="translate(7,7)"/>
<path d="M0 0 C1.65 0.33 3.3 0.66 5 1 C4.67 2.32 4.34 3.64 4 5 C2.35 4.67 0.7 4.34 -1 4 C-0.67 2.68 -0.34 1.36 0 0 Z " fill="#E25747" transform="translate(31,31)"/>
<path d="M0 0 C1.65 0.33 3.3 0.66 5 1 C4.67 2.32 4.34 3.64 4 5 C2.35 4.67 0.7 4.34 -1 4 C-0.67 2.68 -0.34 1.36 0 0 Z " fill="#E25646" transform="translate(18,31)"/>
</svg>
